<?xml version="1.0" encoding="UTF-8" standalone="no"?>
<!DOCTYPE svg PUBLIC "-//W3C//DTD SVG 1.1//EN"
 "http://www.w3.org/Graphics/SVG/1.1/DTD/svg11.dtd">
<!-- Generated by graphviz version 2.47.3 (20210619.1520)
 -->
<!-- Title: dependencies Pages: 1 -->
<svg width="214pt" height="247pt"
 viewBox="0.00 0.00 214.00 246.80" xmlns="http://www.w3.org/2000/svg" xmlns:xlink="http://www.w3.org/1999/xlink">
<g id="graph0" class="graph" transform="scale(1 1) rotate(0) translate(4 242.8)">
<title>dependencies</title>
<polygon fill="white" stroke="transparent" points="-4,4 -4,-242.8 210,-242.8 210,4 -4,4"/>
<text text-anchor="middle" x="103" y="-8.2" font-family="sans-serif" font-size="14.00">dependencies</text>
<g id="clust1" class="cluster">
<title>cluster_CastToGridSlotPipeModule</title>
<polygon fill="none" stroke="black" stroke-dasharray="1,5" points="8,-32.8 8,-230.8 198,-230.8 198,-32.8 8,-32.8"/>
</g>
<g id="clust5" class="cluster">
<title>cluster_CastToGridSlotPipeModule_exports</title>
<polygon fill="none" stroke="black" points="28,-170.8 28,-222.8 178,-222.8 178,-170.8 28,-170.8"/>
</g>
<g id="clust2" class="cluster">
<title>cluster_CastToGridSlotPipeModule_declarations</title>
<polygon fill="none" stroke="black" points="30,-40.8 30,-92.8 176,-92.8 176,-40.8 30,-40.8"/>
</g>
<!-- CastToGridSlotPipe -->
<g id="node1" class="node">
<title>CastToGridSlotPipe</title>
<polygon fill="#ffffb3" stroke="black" points="167.55,-84.8 38.45,-84.8 38.45,-48.8 167.55,-48.8 167.55,-84.8"/>
<text text-anchor="middle" x="103" y="-62.6" font-family="Times,serif" font-size="14.00">CastToGridSlotPipe</text>
</g>
<!-- CastToGridSlotPipeModule -->
<g id="node2" class="node">
<title>CastToGridSlotPipeModule</title>
<polygon fill="#8dd3c7" stroke="black" points="189.6,-149.8 186.6,-153.8 165.6,-153.8 162.6,-149.8 16.4,-149.8 16.4,-113.8 189.6,-113.8 189.6,-149.8"/>
<text text-anchor="middle" x="103" y="-127.6" font-family="Times,serif" font-size="14.00">CastToGridSlotPipeModule</text>
</g>
<!-- CastToGridSlotPipe&#45;&gt;CastToGridSlotPipeModule -->
<g id="edge1" class="edge">
<title>CastToGridSlotPipe&#45;&gt;CastToGridSlotPipeModule</title>
<path fill="none" stroke="black" d="M103,-84.91C103,-84.91 103,-103.79 103,-103.79"/>
<polygon fill="black" stroke="black" points="99.5,-103.79 103,-113.79 106.5,-103.79 99.5,-103.79"/>
</g>
<!-- CastToGridSlotPipe  -->
<g id="node3" class="node">
<title>CastToGridSlotPipe </title>
<polygon fill="#fb8072" stroke="black" points="169.55,-214.8 36.45,-214.8 36.45,-178.8 169.55,-178.8 169.55,-214.8"/>
<text text-anchor="middle" x="103" y="-192.6" font-family="Times,serif" font-size="14.00">CastToGridSlotPipe </text>
</g>
<!-- CastToGridSlotPipeModule&#45;&gt;CastToGridSlotPipe  -->
<g id="edge2" class="edge">
<title>CastToGridSlotPipeModule&#45;&gt;CastToGridSlotPipe </title>
<path fill="none" stroke="black" stroke-dasharray="5,2" d="M103,-149.91C103,-149.91 103,-168.79 103,-168.79"/>
<polygon fill="black" stroke="black" points="99.5,-168.79 103,-178.79 106.5,-168.79 99.5,-168.79"/>
</g>
</g>
</svg>
