<?xml version="1.0" encoding="UTF-8" standalone="no"?>
<!DOCTYPE svg PUBLIC "-//W3C//DTD SVG 1.1//EN"
 "http://www.w3.org/Graphics/SVG/1.1/DTD/svg11.dtd">
<!-- Generated by graphviz version 2.47.3 (20210619.1520)
 -->
<!-- Title: dependencies Pages: 1 -->
<svg width="558pt" height="174pt"
 viewBox="0.00 0.00 558.00 173.80" xmlns="http://www.w3.org/2000/svg" xmlns:xlink="http://www.w3.org/1999/xlink">
<g id="graph0" class="graph" transform="scale(1 1) rotate(0) translate(4 169.8)">
<title>dependencies</title>
<polygon fill="white" stroke="transparent" points="-4,4 -4,-169.8 554,-169.8 554,4 -4,4"/>
<text text-anchor="middle" x="275" y="-8.2" font-family="sans-serif" font-size="14.00">dependencies</text>
<g id="clust1" class="cluster">
<title>cluster_TransactionsPageModule</title>
<polygon fill="none" stroke="black" stroke-dasharray="1,5" points="8,-32.8 8,-157.8 542,-157.8 542,-32.8 8,-32.8"/>
</g>
<g id="clust2" class="cluster">
<title>cluster_TransactionsPageModule_declarations</title>
<polygon fill="none" stroke="black" points="238,-40.8 238,-92.8 534,-92.8 534,-40.8 238,-40.8"/>
</g>
<g id="clust5" class="cluster">
<title>cluster_TransactionsPageModule_imports</title>
<polygon fill="none" stroke="black" points="16,-40.8 16,-92.8 230,-92.8 230,-40.8 16,-40.8"/>
</g>
<!-- TransactionComponent -->
<g id="node1" class="node">
<title>TransactionComponent</title>
<polygon fill="#ffffb3" stroke="black" points="525.92,-84.8 378.08,-84.8 378.08,-48.8 525.92,-48.8 525.92,-84.8"/>
<text text-anchor="middle" x="452" y="-62.6" font-family="Times,serif" font-size="14.00">TransactionComponent</text>
</g>
<!-- TransactionsPageModule -->
<g id="node3" class="node">
<title>TransactionsPageModule</title>
<polygon fill="#8dd3c7" stroke="black" points="382.29,-149.8 379.29,-153.8 358.29,-153.8 355.29,-149.8 223.71,-149.8 223.71,-113.8 382.29,-113.8 382.29,-149.8"/>
<text text-anchor="middle" x="303" y="-127.6" font-family="Times,serif" font-size="14.00">TransactionsPageModule</text>
</g>
<!-- TransactionComponent&#45;&gt;TransactionsPageModule -->
<g id="edge1" class="edge">
<title>TransactionComponent&#45;&gt;TransactionsPageModule</title>
<path fill="none" stroke="black" d="M378.18,-66.8C372.74,-66.8 369.33,-66.8 369.33,-66.8 369.33,-66.8 369.33,-103.69 369.33,-103.69"/>
<polygon fill="black" stroke="black" points="365.83,-103.69 369.33,-113.69 372.83,-103.69 365.83,-103.69"/>
</g>
<!-- TransactionsPage -->
<g id="node2" class="node">
<title>TransactionsPage</title>
<polygon fill="#ffffb3" stroke="black" points="360.24,-84.8 245.76,-84.8 245.76,-48.8 360.24,-48.8 360.24,-84.8"/>
<text text-anchor="middle" x="303" y="-62.6" font-family="Times,serif" font-size="14.00">TransactionsPage</text>
</g>
<!-- TransactionsPage&#45;&gt;TransactionsPageModule -->
<g id="edge2" class="edge">
<title>TransactionsPage&#45;&gt;TransactionsPageModule</title>
<path fill="none" stroke="black" d="M303,-84.91C303,-84.91 303,-103.79 303,-103.79"/>
<polygon fill="black" stroke="black" points="299.5,-103.79 303,-113.79 306.5,-103.79 299.5,-103.79"/>
</g>
<!-- TransactionPageRoutingModule -->
<g id="node4" class="node">
<title>TransactionPageRoutingModule</title>
<polygon fill="#8dd3c7" stroke="black" points="221.96,-84.8 218.96,-88.8 197.96,-88.8 194.96,-84.8 24.04,-84.8 24.04,-48.8 221.96,-48.8 221.96,-84.8"/>
<text text-anchor="middle" x="123" y="-62.6" font-family="Times,serif" font-size="14.00">TransactionPageRoutingModule</text>
</g>
<!-- TransactionPageRoutingModule&#45;&gt;TransactionsPageModule -->
<g id="edge3" class="edge">
<title>TransactionPageRoutingModule&#45;&gt;TransactionsPageModule</title>
<path fill="none" stroke="black" d="M222.36,-66.8C229.95,-66.8 234.74,-66.8 234.74,-66.8 234.74,-66.8 234.74,-103.69 234.74,-103.69"/>
<polygon fill="black" stroke="black" points="231.24,-103.69 234.74,-113.69 238.24,-103.69 231.24,-103.69"/>
</g>
</g>
</svg>
