<?xml version="1.0" encoding="UTF-8" standalone="no"?>
<!DOCTYPE svg PUBLIC "-//W3C//DTD SVG 1.1//EN"
 "http://www.w3.org/Graphics/SVG/1.1/DTD/svg11.dtd">
<!-- Generated by graphviz version 2.47.3 (20210619.1520)
 -->
<!-- Title: dependencies Pages: 1 -->
<svg width="1367pt" height="174pt"
 viewBox="0.00 0.00 1367.00 173.80" xmlns="http://www.w3.org/2000/svg" xmlns:xlink="http://www.w3.org/1999/xlink">
<g id="graph0" class="graph" transform="scale(1 1) rotate(0) translate(4 169.8)">
<title>dependencies</title>
<polygon fill="white" stroke="transparent" points="-4,4 -4,-169.8 1363,-169.8 1363,4 -4,4"/>
<text text-anchor="middle" x="679.5" y="-8.2" font-family="sans-serif" font-size="14.00">dependencies</text>
<g id="clust1" class="cluster">
<title>cluster_CategoriesPageModule</title>
<polygon fill="none" stroke="black" stroke-dasharray="1,5" points="8,-32.8 8,-157.8 1351,-157.8 1351,-32.8 8,-32.8"/>
</g>
<g id="clust9" class="cluster">
<title>cluster_CategoriesPageModule_imports</title>
<polygon fill="none" stroke="black" points="991,-40.8 991,-92.8 1343,-92.8 1343,-40.8 991,-40.8"/>
</g>
<g id="clust2" class="cluster">
<title>cluster_CategoriesPageModule_declarations</title>
<polygon fill="none" stroke="black" points="16,-40.8 16,-92.8 983,-92.8 983,-40.8 16,-40.8"/>
</g>
<!-- AddCategoryComponent -->
<g id="node1" class="node">
<title>AddCategoryComponent</title>
<polygon fill="#ffffb3" stroke="black" points="975.26,-84.8 818.74,-84.8 818.74,-48.8 975.26,-48.8 975.26,-84.8"/>
<text text-anchor="middle" x="897" y="-62.6" font-family="Times,serif" font-size="14.00">AddCategoryComponent</text>
</g>
<!-- CategoriesPageModule -->
<g id="node7" class="node">
<title>CategoriesPageModule</title>
<polygon fill="#8dd3c7" stroke="black" points="740.13,-149.8 737.13,-153.8 716.13,-153.8 713.13,-149.8 593.87,-149.8 593.87,-113.8 740.13,-113.8 740.13,-149.8"/>
<text text-anchor="middle" x="667" y="-127.6" font-family="Times,serif" font-size="14.00">CategoriesPageModule</text>
</g>
<!-- AddCategoryComponent&#45;&gt;CategoriesPageModule -->
<g id="edge1" class="edge">
<title>AddCategoryComponent&#45;&gt;CategoriesPageModule</title>
<path fill="none" stroke="black" d="M897,-84.83C897,-101.2 897,-122.8 897,-122.8 897,-122.8 750.41,-122.8 750.41,-122.8"/>
<polygon fill="black" stroke="black" points="750.41,-119.3 740.41,-122.8 750.41,-126.3 750.41,-119.3"/>
</g>
<!-- AddCostComponent -->
<g id="node2" class="node">
<title>AddCostComponent</title>
<polygon fill="#ffffb3" stroke="black" points="800.61,-84.8 669.39,-84.8 669.39,-48.8 800.61,-48.8 800.61,-84.8"/>
<text text-anchor="middle" x="735" y="-62.6" font-family="Times,serif" font-size="14.00">AddCostComponent</text>
</g>
<!-- AddCostComponent&#45;&gt;CategoriesPageModule -->
<g id="edge2" class="edge">
<title>AddCostComponent&#45;&gt;CategoriesPageModule</title>
<path fill="none" stroke="black" d="M704.88,-84.91C704.88,-84.91 704.88,-103.79 704.88,-103.79"/>
<polygon fill="black" stroke="black" points="701.38,-103.79 704.88,-113.79 708.38,-103.79 701.38,-103.79"/>
</g>
<!-- CategoriesPage -->
<g id="node3" class="node">
<title>CategoriesPage</title>
<polygon fill="#ffffb3" stroke="black" points="651.58,-84.8 548.42,-84.8 548.42,-48.8 651.58,-48.8 651.58,-84.8"/>
<text text-anchor="middle" x="600" y="-62.6" font-family="Times,serif" font-size="14.00">CategoriesPage</text>
</g>
<!-- CategoriesPage&#45;&gt;CategoriesPageModule -->
<g id="edge3" class="edge">
<title>CategoriesPage&#45;&gt;CategoriesPageModule</title>
<path fill="none" stroke="black" d="M622.61,-84.91C622.61,-84.91 622.61,-103.79 622.61,-103.79"/>
<polygon fill="black" stroke="black" points="619.11,-103.79 622.61,-113.79 626.11,-103.79 619.11,-103.79"/>
</g>
<!-- CategoryComponent -->
<g id="node4" class="node">
<title>CategoryComponent</title>
<polygon fill="#ffffb3" stroke="black" points="530.15,-84.8 397.85,-84.8 397.85,-48.8 530.15,-48.8 530.15,-84.8"/>
<text text-anchor="middle" x="464" y="-62.6" font-family="Times,serif" font-size="14.00">CategoryComponent</text>
</g>
<!-- CategoryComponent&#45;&gt;CategoriesPageModule -->
<g id="edge4" class="edge">
<title>CategoryComponent&#45;&gt;CategoriesPageModule</title>
<path fill="none" stroke="black" d="M464,-84.83C464,-101.2 464,-122.8 464,-122.8 464,-122.8 583.71,-122.8 583.71,-122.8"/>
<polygon fill="black" stroke="black" points="583.71,-126.3 593.71,-122.8 583.71,-119.3 583.71,-126.3"/>
</g>
<!-- EditCategoryComponent -->
<g id="node5" class="node">
<title>EditCategoryComponent</title>
<polygon fill="#ffffb3" stroke="black" points="379.98,-84.8 224.02,-84.8 224.02,-48.8 379.98,-48.8 379.98,-84.8"/>
<text text-anchor="middle" x="302" y="-62.6" font-family="Times,serif" font-size="14.00">EditCategoryComponent</text>
</g>
<!-- EditCategoryComponent&#45;&gt;CategoriesPageModule -->
<g id="edge5" class="edge">
<title>EditCategoryComponent&#45;&gt;CategoriesPageModule</title>
<path fill="none" stroke="black" d="M302,-84.91C302,-104.14 302,-131.8 302,-131.8 302,-131.8 583.58,-131.8 583.58,-131.8"/>
<polygon fill="black" stroke="black" points="583.58,-135.3 593.58,-131.8 583.58,-128.3 583.58,-135.3"/>
</g>
<!-- SetMounthlyGoalComponent -->
<g id="node6" class="node">
<title>SetMounthlyGoalComponent</title>
<polygon fill="#ffffb3" stroke="black" points="205.66,-84.8 24.34,-84.8 24.34,-48.8 205.66,-48.8 205.66,-84.8"/>
<text text-anchor="middle" x="115" y="-62.6" font-family="Times,serif" font-size="14.00">SetMounthlyGoalComponent</text>
</g>
<!-- SetMounthlyGoalComponent&#45;&gt;CategoriesPageModule -->
<g id="edge6" class="edge">
<title>SetMounthlyGoalComponent&#45;&gt;CategoriesPageModule</title>
<path fill="none" stroke="black" d="M115,-85.09C115,-107.01 115,-140.8 115,-140.8 115,-140.8 583.7,-140.8 583.7,-140.8"/>
<polygon fill="black" stroke="black" points="583.7,-144.3 593.7,-140.8 583.7,-137.3 583.7,-144.3"/>
</g>
<!-- CategoriesPageRoutingModule -->
<g id="node8" class="node">
<title>CategoriesPageRoutingModule</title>
<polygon fill="#8dd3c7" stroke="black" points="1334.75,-84.8 1331.75,-88.8 1310.75,-88.8 1307.75,-84.8 1143.25,-84.8 1143.25,-48.8 1334.75,-48.8 1334.75,-84.8"/>
<text text-anchor="middle" x="1239" y="-62.6" font-family="Times,serif" font-size="14.00">CategoriesPageRoutingModule</text>
</g>
<!-- CategoriesPageRoutingModule&#45;&gt;CategoriesPageModule -->
<g id="edge7" class="edge">
<title>CategoriesPageRoutingModule&#45;&gt;CategoriesPageModule</title>
<path fill="none" stroke="black" d="M1239,-85.09C1239,-107.01 1239,-140.8 1239,-140.8 1239,-140.8 750.32,-140.8 750.32,-140.8"/>
<polygon fill="black" stroke="black" points="750.32,-137.3 740.32,-140.8 750.32,-144.3 750.32,-137.3"/>
</g>
<!-- IconCreatorModule -->
<g id="node9" class="node">
<title>IconCreatorModule</title>
<polygon fill="#8dd3c7" stroke="black" points="1125.4,-84.8 1122.4,-88.8 1101.4,-88.8 1098.4,-84.8 998.6,-84.8 998.6,-48.8 1125.4,-48.8 1125.4,-84.8"/>
<text text-anchor="middle" x="1062" y="-62.6" font-family="Times,serif" font-size="14.00">IconCreatorModule</text>
</g>
<!-- IconCreatorModule&#45;&gt;CategoriesPageModule -->
<g id="edge8" class="edge">
<title>IconCreatorModule&#45;&gt;CategoriesPageModule</title>
<path fill="none" stroke="black" d="M1062,-84.91C1062,-104.14 1062,-131.8 1062,-131.8 1062,-131.8 750.37,-131.8 750.37,-131.8"/>
<polygon fill="black" stroke="black" points="750.37,-128.3 740.37,-131.8 750.37,-135.3 750.37,-128.3"/>
</g>
</g>
</svg>
