<?xml version="1.0" encoding="UTF-8" standalone="no"?>
<!DOCTYPE svg PUBLIC "-//W3C//DTD SVG 1.1//EN"
 "http://www.w3.org/Graphics/SVG/1.1/DTD/svg11.dtd">
<!-- Generated by graphviz version 2.47.3 (20210619.1520)
 -->
<!-- Title: dependencies Pages: 1 -->
<svg width="503pt" height="247pt"
 viewBox="0.00 0.00 503.00 246.80" xmlns="http://www.w3.org/2000/svg" xmlns:xlink="http://www.w3.org/1999/xlink">
<g id="graph0" class="graph" transform="scale(1 1) rotate(0) translate(4 242.8)">
<title>dependencies</title>
<polygon fill="white" stroke="transparent" points="-4,4 -4,-242.8 499,-242.8 499,4 -4,4"/>
<text text-anchor="middle" x="247.5" y="-8.2" font-family="sans-serif" font-size="14.00">dependencies</text>
<g id="clust1" class="cluster">
<title>cluster_IconCreatorModule</title>
<polygon fill="none" stroke="black" stroke-dasharray="1,5" points="8,-32.8 8,-230.8 487,-230.8 487,-32.8 8,-32.8"/>
</g>
<g id="clust2" class="cluster">
<title>cluster_IconCreatorModule_declarations</title>
<polygon fill="none" stroke="black" points="16,-40.8 16,-92.8 479,-92.8 479,-40.8 16,-40.8"/>
</g>
<g id="clust7" class="cluster">
<title>cluster_IconCreatorModule_exports</title>
<polygon fill="none" stroke="black" points="160,-170.8 160,-222.8 328,-222.8 328,-170.8 160,-170.8"/>
</g>
<!-- ColorListComponent -->
<g id="node1" class="node">
<title>ColorListComponent</title>
<polygon fill="#ffffb3" stroke="black" points="471.5,-84.8 336.5,-84.8 336.5,-48.8 471.5,-48.8 471.5,-84.8"/>
<text text-anchor="middle" x="404" y="-62.6" font-family="Times,serif" font-size="14.00">ColorListComponent</text>
</g>
<!-- IconCreatorModule -->
<g id="node4" class="node">
<title>IconCreatorModule</title>
<polygon fill="#8dd3c7" stroke="black" points="307.4,-149.8 304.4,-153.8 283.4,-153.8 280.4,-149.8 180.6,-149.8 180.6,-113.8 307.4,-113.8 307.4,-149.8"/>
<text text-anchor="middle" x="244" y="-127.6" font-family="Times,serif" font-size="14.00">IconCreatorModule</text>
</g>
<!-- ColorListComponent&#45;&gt;IconCreatorModule -->
<g id="edge1" class="edge">
<title>ColorListComponent&#45;&gt;IconCreatorModule</title>
<path fill="none" stroke="black" d="M404,-84.91C404,-104.14 404,-131.8 404,-131.8 404,-131.8 317.24,-131.8 317.24,-131.8"/>
<polygon fill="black" stroke="black" points="317.24,-128.3 307.24,-131.8 317.24,-135.3 317.24,-128.3"/>
</g>
<!-- IconCreatorComponent -->
<g id="node2" class="node">
<title>IconCreatorComponent</title>
<polygon fill="#ffffb3" stroke="black" points="318.19,-84.8 169.81,-84.8 169.81,-48.8 318.19,-48.8 318.19,-84.8"/>
<text text-anchor="middle" x="244" y="-62.6" font-family="Times,serif" font-size="14.00">IconCreatorComponent</text>
</g>
<!-- IconCreatorComponent&#45;&gt;IconCreatorModule -->
<g id="edge2" class="edge">
<title>IconCreatorComponent&#45;&gt;IconCreatorModule</title>
<path fill="none" stroke="black" d="M244,-84.91C244,-84.91 244,-103.79 244,-103.79"/>
<polygon fill="black" stroke="black" points="240.5,-103.79 244,-113.79 247.5,-103.79 240.5,-103.79"/>
</g>
<!-- IconListComponent -->
<g id="node3" class="node">
<title>IconListComponent</title>
<polygon fill="#ffffb3" stroke="black" points="151.99,-84.8 24.01,-84.8 24.01,-48.8 151.99,-48.8 151.99,-84.8"/>
<text text-anchor="middle" x="88" y="-62.6" font-family="Times,serif" font-size="14.00">IconListComponent</text>
</g>
<!-- IconListComponent&#45;&gt;IconCreatorModule -->
<g id="edge3" class="edge">
<title>IconListComponent&#45;&gt;IconCreatorModule</title>
<path fill="none" stroke="black" d="M88,-84.91C88,-104.14 88,-131.8 88,-131.8 88,-131.8 170.55,-131.8 170.55,-131.8"/>
<polygon fill="black" stroke="black" points="170.55,-135.3 180.55,-131.8 170.55,-128.3 170.55,-135.3"/>
</g>
<!-- IconCreatorComponent  -->
<g id="node5" class="node">
<title>IconCreatorComponent </title>
<polygon fill="#fb8072" stroke="black" points="319.69,-214.8 168.31,-214.8 168.31,-178.8 319.69,-178.8 319.69,-214.8"/>
<text text-anchor="middle" x="244" y="-192.6" font-family="Times,serif" font-size="14.00">IconCreatorComponent </text>
</g>
<!-- IconCreatorModule&#45;&gt;IconCreatorComponent  -->
<g id="edge4" class="edge">
<title>IconCreatorModule&#45;&gt;IconCreatorComponent </title>
<path fill="none" stroke="black" stroke-dasharray="5,2" d="M244,-149.91C244,-149.91 244,-168.79 244,-168.79"/>
<polygon fill="black" stroke="black" points="240.5,-168.79 244,-178.79 247.5,-168.79 240.5,-168.79"/>
</g>
</g>
</svg>
